<svg width="35" height="36" viewBox="0 0 35 36" fill="none" xmlns="http://www.w3.org/2000/svg">
<path d="M22.9778 30.6851C24.8056 29.8658 27.0774 30.6909 28.8479 30.3986C31.9505 29.7655 29.2962 25.3694 30.8404 22.6478C31.6497 20.9103 33.7038 19.9763 34.6779 18.5253C36.2621 15.957 31.5351 14.7179 30.637 11.9319C29.9494 10.2889 30.5396 8.12878 30.4279 6.56172C30.3677 5.35275 29.6257 4.58641 28.3795 4.5506C25.9372 4.52051 23.78 5.31837 21.6514 3.52498C20.6444 2.7128 19.8967 1.49667 18.9527 0.655841C16.7697 -1.32233 15.2714 1.67572 13.8633 3.04942C12.9466 3.99768 11.7906 4.59643 10.4728 4.68954C9.13491 4.81989 7.68959 4.44316 6.38466 4.58641C3.70173 4.87432 4.74167 8.02565 4.70586 9.85915C4.73021 11.2056 4.31624 12.469 3.42098 13.476C2.40109 14.8254 -0.565455 16.1231 0.0948918 18.0526C1.31245 20.6725 4.92072 20.9346 4.69726 25.5757C4.68867 26.9623 4.14292 28.6926 5.0611 29.8328C5.63837 30.4903 6.73274 30.5233 7.61797 30.4574C10.3754 30.1709 12.2848 30.1165 14.2587 32.4026C15.3674 33.6087 16.7053 35.8748 18.5431 34.673C20.027 33.6445 21.0598 31.4013 22.9563 30.6952L22.9807 30.6851H22.9778Z" fill="url(#paint0_linear_147_638)"/>
<path d="M13.6444 17.4824H17.426V21.264C17.426 23.3511 15.7314 25.0456 13.6444 25.0456C11.5573 25.0456 9.86279 23.3511 9.86279 21.264C9.86279 19.177 11.5573 17.4824 13.6444 17.4824Z" stroke="white" stroke-width="1.21326" stroke-miterlimit="10"/>
<path d="M21.3524 9.96802C23.4394 9.96802 25.134 11.6626 25.134 13.7496C25.134 15.8367 23.4394 17.5312 21.3524 17.5312H17.5708V13.7496C17.5708 11.6626 19.2654 9.96802 21.3524 9.96802Z" stroke="white" stroke-width="1.21326" stroke-miterlimit="10"/>
<defs>
<linearGradient id="paint0_linear_147_638" x1="5.1141" y1="29.893" x2="29.8692" y2="5.13789" gradientUnits="userSpaceOnUse">
<stop stop-color="#FDD835"/>
<stop offset="0.478967" stop-color="#F99F49"/>
<stop offset="1" stop-color="#F4635E"/>
</linearGradient>
</defs>
</svg>
