<svg width="38" height="28" viewBox="0 0 38 28" fill="none" xmlns="http://www.w3.org/2000/svg">
<path d="M0.470941 12.0933V9.93069H5.79096C6.79909 9.93069 7.63174 9.58951 8.28712 8.90717C8.94429 8.22482 9.27198 7.35722 9.27198 6.30619C9.27198 5.25516 8.94429 4.3582 8.28712 3.67586C7.62995 2.99351 6.79909 2.65234 5.79096 2.65234C4.78282 2.65234 3.95554 2.99351 3.30912 3.67586C2.66269 4.3582 2.33859 5.23498 2.33859 6.30619C2.33859 7.10592 2.51944 7.78644 2.88115 8.35139H0.513916C0.171902 7.80661 0 7.12427 0 6.30619C0 5.19463 0.252481 4.19679 0.755654 3.31084C1.25883 2.42489 1.95002 1.73338 2.82385 1.23629C3.69769 0.739207 4.68792 0.491582 5.79096 0.491582C6.894 0.491582 7.88781 0.739207 8.77239 1.23629C9.65697 1.73338 10.3517 2.42489 10.8549 3.31084C11.3581 4.19679 11.6106 5.19646 11.6106 6.30619C11.6106 7.41591 11.3581 8.41008 10.8549 9.28686C10.3499 10.1636 9.65697 10.8515 8.77239 11.3467C7.88781 11.8438 6.894 12.0914 5.79096 12.0914H0.470941V12.0933ZM19.0597 16.5487C17.6701 16.4515 16.5581 15.837 15.7219 14.7071C14.8839 13.5772 14.4667 11.8915 14.4667 9.65004V0H16.807V9.12545C16.807 10.6846 17.0022 11.8823 17.3926 12.7206C17.7829 13.5589 18.338 14.1146 19.0615 14.3861V16.5487H19.0597Z" fill="#121212"/>
<path d="M33.4777 0.434692V2.59728H28.1577C27.1495 2.59728 26.3169 2.93846 25.6615 3.6208C25.0043 4.30315 24.6766 5.17075 24.6766 6.22178C24.6766 7.27281 25.0043 8.16977 25.6615 8.85211C26.3187 9.53446 27.1495 9.87563 28.1577 9.87563C29.1658 9.87563 29.9931 9.53446 30.6395 8.85211C31.2859 8.16977 31.61 7.29299 31.61 6.22178C31.61 5.42205 31.4292 4.74153 31.0675 4.17658H33.4365C33.7785 4.72136 33.9504 5.4037 33.9504 6.22178C33.9504 7.33334 33.6979 8.33118 33.1948 9.21713C32.6916 10.1031 32.0004 10.7946 31.1266 11.2917C30.2527 11.7888 29.2625 12.0364 28.1595 12.0364C27.0564 12.0364 26.0626 11.7888 25.178 11.2917C24.2934 10.7946 23.5987 10.1031 23.0955 9.21713C22.5923 8.33118 22.3398 7.33151 22.3398 6.22178C22.3398 5.11206 22.5923 4.11789 23.0955 3.24111C23.6005 2.36433 24.2934 1.67649 25.178 1.18124C26.0626 0.684152 27.0564 0.436526 28.1595 0.436526H33.4795L33.4777 0.434692Z" fill="#121212"/>
<path d="M19.0596 16.5579V14.3953H37.3331V16.5579H19.0596ZM32.0077 22.5944H34.3481V28H23.7976C23.3786 28 23.0599 27.8881 22.8414 27.6643C22.623 27.4405 22.5137 27.114 22.5137 26.6848V18.8525H34.3481V21.0151H24.8541V25.8649H32.0095V22.5926L32.0077 22.5944Z" fill="#121212"/>
</svg>
