<svg width="24" height="24" viewBox="0 0 24 24" fill="none" xmlns="http://www.w3.org/2000/svg">
<path d="M15.7562 21.0327C17.0096 20.4711 18.5674 21.0367 19.7814 20.8364C21.9089 20.4024 20.0889 17.3891 21.1477 15.5237C21.7027 14.3327 23.1112 13.6925 23.7791 12.6979C24.8654 10.9375 21.6241 10.0882 21.0082 8.17854C20.5368 7.05238 20.9414 5.57177 20.8648 4.49764C20.8236 3.66897 20.3148 3.14369 19.4602 3.11915C17.7855 3.09853 16.3063 3.64541 14.8467 2.41615C14.1562 1.85945 13.6434 1.02587 12.9962 0.449537C11.4992 -0.906377 10.4718 1.1486 9.50628 2.09018C8.87765 2.74016 8.08499 3.15057 7.18134 3.21438C6.26394 3.30373 5.27286 3.04551 4.37805 3.14369C2.53833 3.34104 3.25143 5.50108 3.22687 6.75783C3.24357 7.68075 2.95971 8.54673 2.34581 9.23696C1.64646 10.1618 -0.38774 11.0514 0.0650687 12.3739C0.899966 14.1697 3.37421 14.3494 3.22098 17.5305C3.21509 18.4809 2.84086 19.667 3.47047 20.4485C3.86631 20.8992 4.61673 20.9218 5.22375 20.8766C7.11455 20.6802 8.42386 20.6429 9.77738 22.2099C10.5376 23.0367 11.455 24.5899 12.7152 23.7662C13.7328 23.0612 14.441 21.5236 15.7415 21.0396L15.7582 21.0327H15.7562Z" fill="#FDD835"/>
</svg>
